<svg xmlns="http://www.w3.org/2000/svg" width="40" height="40" viewBox="0 0 40 40">
    <g fill="none" fill-rule="evenodd">
        <g>
            <g>
                <g>
                    <g transform="translate(-1345.000000, -3920.000000) translate(0.000000, 3848.000000) translate(1201.000000, 72.000000) translate(144.000000, 0.000000)">
                        <circle cx="20" cy="20" r="19.5" fill="#000" stroke="#B1B1B1"/>
                        <path fill="#FFF" d="M30 14.006c-.749.347-1.5.61-2.334.698.833-.525 1.5-1.396 1.833-2.357-.834.525-1.667.872-2.582 1.05C26.084 12.523 25 12 23.835 12c-2.253 0-4.086 1.917-4.086 4.27 0 .351 0 .699.085.96-3.418-.173-6.416-1.831-8.418-4.447-.417.613-.583 1.396-.583 2.18 0 1.485.749 2.792 1.833 3.575-.667-.088-1.331-.262-1.833-.524v.089c0 2.09 1.416 3.834 3.249 4.185-.332.085-.664.174-1.08.174-.251 0-.502 0-.753-.089.502 1.744 2.002 2.966 3.835 2.966-1.416 1.134-3.167 1.829-5.085 1.829-.332 0-.667 0-.999-.085C11.833 28.302 14 29 16.25 29c7.585 0 11.667-6.538 11.667-12.205v-.525c.833-.61 1.5-1.392 2.083-2.264"/>
                    </g>
                </g>
            </g>
        </g>
    </g>
</svg>
