<svg width="40" height="40" xmlns="http://www.w3.org/2000/svg">
    <g fill="none" fill-rule="evenodd">
        <circle stroke="#B1B1B1" fill="#000" cx="20" cy="20" r="19.5"/>
        <path d="M22.318 23.616c1.377.726 2.379 2.78 2.379 4.32v3.354a14.77 14.77 0 0 1-5.008.864 14.65 14.65 0 0 1-3.73-.475c-.026-.088-.026-.176-.026-.263v-2.617h-1.89c-1.027 0-1.941-.438-2.38-1.277-.5-.926-.575-2.341-1.802-3.218-.363-.288-.088-.613.338-.563.764.213 1.402.751 2.003 1.552.601.79.877.977 2.003.977.539 0 1.352-.038 2.116-.15.413-1.064 1.114-2.041 1.99-2.504-5.007-.514-7.398-3.043-7.398-6.473 0-1.49.626-2.917 1.677-4.12-.35-1.188-.776-3.63.138-4.556 2.241 0 3.606 1.477 3.931 1.878a11.177 11.177 0 0 1 7.312 0c.313-.388 1.678-1.878 3.944-1.878.914.926.475 3.38.125 4.57 1.039 1.201 1.652 2.629 1.652 4.106 0 3.418-2.378 5.947-7.374 6.473" fill="#FFF"/>
    </g>
</svg>
