<svg xmlns="http://www.w3.org/2000/svg" width="40" height="40" viewBox="0 0 40 40">
    <g fill="none" fill-rule="evenodd">
        <g>
            <g>
                <g transform="translate(-1201.000000, -3920.000000) translate(0.000000, 3848.000000) translate(1201.000000, 72.000000)">
                    <circle cx="20" cy="20" r="19.5" fill="#000" stroke="#B1B1B1"/>
                    <path fill="#FFF" d="M13.313 7.031l1.78 5.844v3.813h1.5v-4l1.72-5.657h-1.5l-.938 3.844h-.094l-.969-3.844h-1.5zm6.906 2.344c-.602 0-1.082.172-1.438.5-.355.324-.531.762-.531 1.313v3.687c0 .605.184 1.113.531 1.469.352.36.793.531 1.375.531.602 0 1.094-.184 1.438-.531.343-.348.5-.828.5-1.438V11.22c0-.543-.18-.969-.532-1.313-.347-.347-.792-.531-1.343-.531zm3 .188v5.968c0 .426.093.727.25.938.156.21.383.312.687.312.246 0 .489-.07.75-.218.266-.153.54-.368.782-.657v.781H27V9.563h-1.313v5.407c-.125.152-.257.277-.406.375-.148.101-.277.156-.375.156-.12 0-.226-.02-.281-.094-.059-.074-.063-.21-.063-.375V9.562H23.22zm-3.063 1.062c.176 0 .332.031.438.125.11.098.156.223.156.375v3.906c0 .192-.05.332-.156.438-.106.11-.258.156-.438.156-.176 0-.312-.05-.406-.156-.098-.106-.125-.242-.125-.438v-3.906c0-.152.055-.277.156-.375.102-.094.215-.125.375-.125zM20 18.156c-2.594-.004-5.137.02-7.625.125-1.738 0-3.156 1.403-3.156 3.125-.106 1.364-.16 2.73-.157 4.094-.003 1.363.051 2.73.157 4.094 0 1.722 1.418 3.125 3.156 3.125 2.488.101 5.031.129 7.625.125 2.598.008 5.14-.024 7.625-.125 1.738 0 3.156-1.403 3.156-3.125.106-1.364.16-2.73.157-4.094.007-1.363-.051-2.73-.157-4.094 0-1.722-1.418-3.125-3.156-3.125-2.484-.105-5.027-.129-7.625-.125zm-9.25 2.219h4.594c.082 0 .156.074.156.156v1.407c0 .082-.074.156-.156.156h-1.406v8.093c0 .083-.043.157-.126.157h-1.5c-.082 0-.156-.074-.156-.157v-8.093H10.75c-.082 0-.125-.074-.125-.157v-1.406c0-.082.043-.156.125-.156zm9.656 0h1.344c.082 0 .156.074.156.156v2.719c.11-.102.227-.184.344-.25.227-.125.457-.188.688-.188.468 0 .812.188 1.062.532.238.332.375.797.375 1.406v3.969c0 .539-.113.957-.344 1.25-.238.304-.593.468-1.031.468-.277 0-.523-.074-.75-.187-.121-.063-.234-.121-.344-.219v.157c0 .082-.074.156-.156.156h-1.344c-.082 0-.156-.074-.156-.157v-9.656c0-.082.074-.156.156-.156zm6.813 2.344c.648 0 1.18.203 1.531.593.352.391.531.946.531 1.657v1.843c0 .083-.074.125-.156.125H26.75v1.22c0 .437.047.609.094.687.039.062.105.156.312.156.168 0 .285-.047.344-.125.027-.043.094-.2.094-.719v-.5c0-.082.074-.156.156-.156h1.375c.082 0 .156.074.156.156v.532c0 .769-.207 1.355-.562 1.75-.356.398-.89.593-1.594.593-.637 0-1.133-.199-1.5-.625-.363-.418-.563-.996-.563-1.718v-3.22c0-.655.192-1.175.594-1.593.403-.418.93-.656 1.563-.656zm-11.875.187h1.312c.082 0 .157.074.157.157v5.468c0 .18.011.254.03.282.009.011.044.062.157.062.04 0 .125-.016.281-.125.13-.086.242-.191.344-.313v-5.375c0-.082.074-.156.156-.156h1.344c.082 0 .125.074.125.157v7.125c0 .082-.043.156-.125.156h-1.344c-.082 0-.156-.074-.156-.157v-.406c-.176.172-.348.301-.531.407-.29.164-.563.25-.844.25-.355 0-.629-.122-.813-.375-.175-.239-.25-.579-.25-1.032v-5.968c0-.083.075-.157.157-.157zm6.906 1.344c-.05.008-.102.035-.156.063-.063.03-.125.09-.188.156v4.312c.078.082.145.153.219.188.082.039.16.062.25.062.168 0 .234-.07.25-.093.04-.051.063-.168.063-.407v-3.687c0-.203-.02-.371-.094-.469-.074-.098-.192-.152-.344-.125zm4.938.031c-.16 0-.278.035-.344.125-.047.067-.094.23-.094.563v.562h.844v-.562c0-.328-.043-.489-.094-.563-.063-.086-.16-.125-.313-.125z"/>
                </g>
            </g>
        </g>
    </g>
</svg>
