<svg xmlns="http://www.w3.org/2000/svg" width="40" height="40" viewBox="0 0 40 40">
    <g fill="none" fill-rule="evenodd">
        <g>
            <g>
                <g>
                    <g transform="translate(-1249.000000, -3920.000000) translate(0.000000, 3848.000000) translate(1201.000000, 72.000000) translate(48.000000, 0.000000)">
                        <circle cx="20" cy="20" r="19.5" fill="#000" stroke="#B1B1B1"/>
                        <path fill="#FFF" d="M29.154 8.984c-.325.015-.628.11-.894.217-.25.1-1.204.51-2.707 1.154-1.505.646-3.497 1.5-5.621 2.415-4.25 1.827-9.028 3.884-11.475 4.937-.092.04-.413.142-.754.408-.34.266-.703.818-.703 1.432 0 .495.236.987.533 1.281.297.294.612.44.881.549l4.58 1.873c.202.617 1.298 3.973 1.553 4.795.168.543.327.883.535 1.152.104.135.225.253.371.346.059.037.123.066.188.092l.004.002c.014.006.027.016.043.021.028.01.047.011.085.02.153.049.307.08.444.08.585 0 .943-.322.943-.322l.022-.016 3.01-2.604 3.65 3.454c.051.072.53.73 1.588.73.627 0 1.125-.315 1.445-.65.32-.336.519-.688.604-1.131v-.002c.079-.419 3.443-17.69 3.443-17.69l-.006.024c.098-.45.124-.868.016-1.281-.109-.414-.395-.81-.75-1.022-.355-.213-.703-.278-1.028-.264zm-.187 2.09c-.005.03.003.015-.004.049l-.002.012-.002.011s-3.323 17.05-3.445 17.7c.009-.05-.032.048-.075.107-.06-.04-.181-.094-.181-.094l-.02-.021-4.986-4.717-3.525 3.047 1.048-4.2s6.557-6.786 6.952-7.18c.318-.317.384-.427.384-.536 0-.146-.076-.252-.246-.252-.153 0-.359.149-.469.219-1.433.913-7.724 4.58-10.544 6.22-.449-.183-3.562-1.458-4.618-1.888l.014-.006 11.473-4.938 5.62-2.414c1.48-.634 2.51-1.071 2.626-1.119z"/>
                    </g>
                </g>
            </g>
        </g>
    </g>
</svg>
