<svg xmlns="http://www.w3.org/2000/svg" width="69" height="50" viewBox="0 0 69 50">
    <g fill="none" fill-rule="evenodd">
        <g fill="#FFF">
            <g>
                <g>
                    <path d="M25.927 32.05c1.206.079 2.485.559 3.807 1.428l-10.303 10.25h-8.61c3.897-3.845 7-6.93 9.235-9.18 2.063-1.805 3.983-2.621 5.87-2.498zm3.39-15.944c-3.034 1.485-6.226.752-9.985-2.276C16.47 11 13.908 8.464 11.706 6.273h7.725l9.885 9.833zm38.758 28.54L47.91 24.586 65.914 5.269c.853-.915 1.08-2.245.578-3.388C65.99.738 64.856 0 63.602 0H47.596c-.842 0-1.634.326-2.23.919l-11.2 11.141L22.967.92C22.372.326 21.58 0 20.738 0H4.125C2.85 0 1.708.756 1.216 1.926s-.23 2.51.665 3.413c3.025 3.05 7.438 7.44 13.118 13.05.071.07.146.138.224.2 3.696 3.014 7.402 4.541 11.016 4.541 3.719 0 7.24-1.589 10.463-4.721l12.2-12.136h7.478L41.222 22.536c-1.157 1.242-1.121 3.153.083 4.35l16.93 16.841h-8.848L36.728 31.134c-3.356-3.314-6.851-5.112-10.388-5.343-3.63-.236-7.178 1.154-10.547 4.133-.051.045-.101.092-.149.14-3.175 3.198-8.122 8.1-14.705 14.568-.914.898-1.189 2.241-.7 3.423C.725 49.237 1.87 50 3.154 50h17.582c.842 0 1.634-.326 2.23-.919l11.442-11.383 11.443 11.383c.595.593 1.387.919 2.23.919h17.764c1.28 0 2.423-.76 2.912-1.936.49-1.176.222-2.518-.683-3.418z" transform="translate(-215.000000, -3920.000000) translate(0.000000, 3848.000000) translate(215.000000, 72.000000)"/>
                </g>
            </g>
        </g>
    </g>
</svg>
