<svg xmlns="http://www.w3.org/2000/svg" width="156" height="28" viewBox="0 0 156 28">
    <g fill="none" fill-rule="evenodd">
        <g fill="#FFF">
            <g>
                <path d="M131.654 17.948c.682.044 1.405.313 2.152.8l-5.823 5.74h-4.866c2.202-2.154 3.956-3.881 5.219-5.142 1.166-1.01 2.251-1.467 3.318-1.398zm1.916-8.929c-1.715.832-3.518.421-5.643-1.274-1.619-1.584-3.066-3.005-4.31-4.232h4.366l5.587 5.506zm21.907 15.983L144.08 13.768 154.256 2.95c.482-.512.61-1.256.326-1.896C154.3.414 153.658 0 152.95 0h-9.047c-.476 0-.923.183-1.26.514l-6.33 6.24-6.33-6.24C129.644.183 129.196 0 128.72 0h-9.39c-.72 0-1.366.423-1.644 1.079-.278.655-.13 1.405.376 1.911 1.71 1.708 4.204 4.166 7.415 7.308.04.04.082.077.126.112 2.09 1.687 4.184 2.543 6.227 2.543 2.102 0 4.092-.89 5.913-2.644l6.896-6.796h4.227l-8.568 9.107c-.654.696-.633 1.766.047 2.436l9.569 9.431h-5l-7.156-7.052c-1.897-1.856-3.872-2.863-5.871-2.992-2.052-.132-4.057.646-5.962 2.314-.029.026-.057.052-.084.079-1.794 1.791-4.59 4.536-8.311 8.158-.517.503-.672 1.255-.396 1.917.275.661.922 1.089 1.648 1.089h9.938c.476 0 .923-.183 1.26-.514l6.468-6.375 6.467 6.375c.337.331.784.514 1.26.514h10.041c.723 0 1.37-.426 1.646-1.084.277-.659.126-1.41-.386-1.914zM0 24.786V4.214C0 2.964.97 2 2.227 2h14.618c1.078 0 1.975.893 1.975 1.964 0 1.107-.897 1.965-1.975 1.965H4.418v6.5h10.81c1.078 0 1.976.892 1.976 2 0 1.071-.898 1.928-1.975 1.928H4.418v6.714h12.607c1.077 0 1.975.893 1.975 1.965C19 26.143 18.102 27 17.025 27H2.227C.97 27 0 26.036 0 24.786M20.876 25.812c-.495-.243-.876-.764-.876-1.46 0-.937.8-1.701 1.867-1.701.38 0 .723.104.99.243 1.943 1.18 3.962 1.771 5.79 1.771 1.982 0 3.124-.764 3.124-1.98v-.069c0-1.424-2.133-1.91-4.495-2.57-2.971-.764-6.286-1.876-6.286-5.384v-.07C20.99 11.12 24.152 9 28.152 9c2.134 0 4.381.556 6.324 1.494.648.312 1.105.868 1.105 1.597 0 .973-.838 1.702-1.905 1.702-.38 0-.61-.07-.914-.208-1.638-.764-3.314-1.25-4.724-1.25-1.79 0-2.819.764-2.819 1.806v.07c0 1.354 2.171 1.91 4.533 2.604 2.934.834 6.248 2.05 6.248 5.35v.069C36 26.09 32.724 28 28.533 28c-2.552 0-5.333-.73-7.657-2.188M37 18.586v-.069C37 13.345 41.091 9 46.7 9c2.927 0 4.937.931 6.524 2.276.282.241.67.759.67 1.448 0 1.07-.882 1.897-1.975 1.897-.529 0-.987-.207-1.27-.414-1.093-.897-2.292-1.552-3.985-1.552-3.104 0-5.396 2.62-5.396 5.793v.07c0 3.24 2.292 5.827 5.572 5.827 1.693 0 2.998-.655 4.162-1.62.247-.208.67-.45 1.164-.45 1.023 0 1.834.828 1.834 1.828 0 .552-.212 1-.6 1.31C51.743 26.966 49.732 28 46.63 28 41.09 28 37 23.759 37 18.586M57 11.181c0-1.196.91-2.146 2.102-2.146 1.191 0 2.137.95 2.137 2.146v1.9C62.219 10.76 64.04 9 65.899 9 67.228 9 68 9.88 68 11.111c0 1.126-.736 1.865-1.682 2.04-3.012.529-5.08 2.85-5.08 7.249v5.489c0 1.161-.945 2.111-2.136 2.111C57.946 28 57 27.085 57 25.889V11.18zM82.917 18.586v-.069c0-3.207-2.262-5.862-5.468-5.862-3.273 0-5.366 2.62-5.366 5.793v.07c0 3.172 2.262 5.827 5.434 5.827 3.307 0 5.4-2.62 5.4-5.759m-14.917 0v-.069C68 13.31 72.05 9 77.517 9S87 13.241 87 18.448v.07C87 23.69 82.95 28 77.45 28 72.015 28 68 23.759 68 18.586M94.143 26.11l-4.934-14.066c-.105-.28-.209-.735-.209-1.085C89 9.945 89.8 9 91.05 9c1.043 0 1.738.7 2.05 1.68l3.545 11.197 3.579-11.197c.313-.98 1.077-1.68 2.154-1.68h.244c1.077 0 1.841.7 2.154 1.68l3.614 11.197 3.58-11.232c.277-.91.937-1.645 2.05-1.645 1.146 0 1.98.91 1.98 1.96 0 .314-.104.734-.174.944l-5.004 14.206c-.451 1.295-1.32 1.89-2.328 1.89h-.139c-1.042 0-1.91-.595-2.293-1.82l-3.58-10.987L98.87 26.18C98.487 27.405 97.618 28 96.61 28h-.139c-1.042 0-1.911-.595-2.328-1.89" transform="translate(-89.000000, -45.000000) translate(89.000000, 45.000000)"/>
            </g>
        </g>
    </g>
</svg>
