<svg xmlns="http://www.w3.org/2000/svg" width="40" height="40" viewBox="0 0 40 40">
    <g fill="none" fill-rule="evenodd">
        <g>
            <g>
                <g>
                    <g transform="translate(-1297.000000, -3920.000000) translate(0.000000, 3848.000000) translate(1201.000000, 72.000000) translate(96.000000, 0.000000)">
                        <circle cx="20" cy="20" r="19.5" fill="#000" stroke="#B1B1B1"/>
                        <path fill="#FFF" d="M29 9H11c-1.105 0-2 .895-2 2v18c0 1.105.895 2 2 2h18c1.105 0 2-.895 2-2V11c0-1.105-.895-2-2-2zm-1.458 17h-5.931v-.333L23 24.445V17.47L19.589 26h-.533l-3.806-8.597v6.087l1.74 2.177V26h-4.532v-.333l1.799-2.177v-7.242l-1.599-1.999v-.244h4.376l3.399 7.353 2.932-7.353h4.154v.244L26 15.526v8.919l1.542 1.222V26z"/>
                    </g>
                </g>
            </g>
        </g>
    </g>
</svg>
